<svg width="24" height="26" viewBox="0 0 24 26" fill="none" xmlns="http://www.w3.org/2000/svg">
<path d="M4.05 13.7735C3.98333 13.597 3.98333 13.403 4.05 13.2265C4.69933 11.68 5.80153 10.3577 7.21686 9.4272C8.63219 8.49673 10.2969 8 12 8C13.7031 8 15.3678 8.49673 16.7831 9.4272C18.1985 10.3577 19.3007 11.68 19.95 13.2265C20.0167 13.403 20.0167 13.597 19.95 13.7735C19.3007 15.32 18.1985 16.6423 16.7831 17.5728C15.3678 18.5033 13.7031 19 12 19C10.2969 19 8.63219 18.5033 7.21686 17.5728C5.80153 16.6423 4.69933 15.32 4.05 13.7735Z" stroke="#696969" stroke-width="1.5" stroke-linecap="round" stroke-linejoin="round"/>
<path d="M12 16C13.3807 16 14.5 14.8807 14.5 13.5C14.5 12.1193 13.3807 11 12 11C10.6193 11 9.5 12.1193 9.5 13.5C9.5 14.8807 10.6193 16 12 16Z" stroke="#696969" stroke-width="1.5" stroke-linecap="round" stroke-linejoin="round"/>
</svg>
