<svg width="24" height="26" viewBox="0 0 24 26" fill="none" xmlns="http://www.w3.org/2000/svg">
<path d="M18.3333 12.5H6.66667C5.74619 12.5 5 13.2462 5 14.1667V20C5 20.9205 5.74619 21.6667 6.66667 21.6667H18.3333C19.2538 21.6667 20 20.9205 20 20V14.1667C20 13.2462 19.2538 12.5 18.3333 12.5Z" stroke="#696969" stroke-width="1.66667" stroke-linecap="round" stroke-linejoin="round"/>
<path d="M8.33325 12.5V9.16667C8.33325 8.0616 8.77224 7.00179 9.55364 6.22039C10.335 5.43899 11.3948 5 12.4999 5C13.605 5 14.6648 5.43899 15.4462 6.22039C16.2276 7.00179 16.6666 8.0616 16.6666 9.16667V12.5" stroke="#696969" stroke-width="1.66667" stroke-linecap="round" stroke-linejoin="round"/>
</svg>
