<svg width="24" height="26" viewBox="0 0 24 26" fill="none" xmlns="http://www.w3.org/2000/svg">
<circle cx="12" cy="9" r="3.25" stroke="#696969" stroke-width="1.5"/>
<path d="M14.2568 14.0068C16.8989 14.1405 19 16.3247 19 19V21L18.9932 21.2568C18.9804 21.5101 18.9476 21.7581 18.8984 22H17.3545C17.4488 21.6831 17.5 21.3475 17.5 21V19C17.5 17.067 15.933 15.5 14 15.5H10C8.067 15.5 6.5 17.067 6.5 19V21C6.5 21.3475 6.55118 21.6831 6.64551 22H5.10059C5.03498 21.6769 5 21.3425 5 21V19C5 16.2386 7.23858 14 10 14H14L14.2568 14.0068Z" fill="#696969"/>
</svg>
